<?xml version="1.0" encoding="UTF-8" standalone="no"?>
<svg
   width="1766"
   height="731.43781"
   viewBox="0 0 1766 731.43781"
   fill="none"
   version="1.1"
   id="svg41"
   sodipodi:docname="ibme-diagram.svg"
   inkscape:version="1.3.2 (091e20e, 2023-11-25, custom)"
   xmlns:inkscape="http://www.inkscape.org/namespaces/inkscape"
   xmlns:sodipodi="http://sodipodi.sourceforge.net/DTD/sodipodi-0.dtd"
   xmlns="http://www.w3.org/2000/svg"
   xmlns:svg="http://www.w3.org/2000/svg">
  <sodipodi:namedview
     id="namedview41"
     pagecolor="#ffffff"
     bordercolor="#666666"
     borderopacity="1.0"
     inkscape:showpageshadow="2"
     inkscape:pageopacity="0.0"
     inkscape:pagecheckerboard="0"
     inkscape:deskcolor="#d1d1d1"
     inkscape:zoom="0.30160725"
     inkscape:cx="828.89255"
     inkscape:cy="-154.17402"
     inkscape:window-width="1920"
     inkscape:window-height="1009"
     inkscape:window-x="-8"
     inkscape:window-y="-8"
     inkscape:window-maximized="1"
     inkscape:current-layer="svg41" />
  <rect
     x="74"
     y="214.35403"
     width="650"
     height="280"
     rx="140"
     fill="url(#paint1_radial_699_63594)"
     fill-opacity="0.12"
     id="rect6"
     style="fill:#00d6d9;fill-opacity:0.2;stroke:#000000;stroke-opacity:1" />
  <rect
     x="76.5"
     y="214.85403"
     width="649"
     height="279"
     rx="139.5"
     stroke="#F4F4F4"
     stroke-opacity="0.3"
     id="rect7"
     style="stroke:#000000;stroke-opacity:1" />
  <line
     x1="320.81061"
     y1="356.04343"
     x2="620.81061"
     y2="356.04343"
     stroke="white"
     stroke-width="3"
     id="line7"
     style="stroke:#000000;stroke-opacity:1" />
  <rect
     x="1049"
     y="214.35403"
     width="650"
     height="280"
     rx="140"
     fill="url(#paint2_radial_699_63594)"
     fill-opacity="0.12"
     id="rect9"
     style="fill:#00d6d9;fill-opacity:0.2;stroke:#000000;stroke-opacity:1" />
  <rect
     x="1049.5"
     y="214.85403"
     width="649"
     height="279"
     rx="139.5"
     stroke="#F4F4F4"
     stroke-opacity="0.3"
     id="rect10"
     style="stroke:#000000;stroke-opacity:1" />
  <mask
     id="path-23-outside-1_699_63594"
     maskUnits="userSpaceOnUse"
     x="0"
     y="151"
     width="153"
     height="436"
     fill="#000000">
    <rect
       fill="#ffffff"
       y="151"
       width="153"
       height="436"
       id="rect16"
       x="0" />
    <path
       d="M 151,584.888 C 111.483,584.888 73.584,562.137 45.6411,521.64 17.6982,481.142 2,426.216 2,368.944 2,311.672 17.6982,256.746 45.6411,216.249 73.584,175.751 111.483,153 151,153 v 1.478 c -39.247,0 -76.8861,22.595 -104.6378,62.816 -27.7517,40.22 -43.34239,94.77 -43.34239,151.65 -1e-5,56.88 15.59069,111.43 43.34239,151.651 C 74.1139,560.815 111.753,583.41 151,583.41 Z"
       id="path17" />
  </mask>
  <mask
     id="path-25-outside-2_699_63594"
     maskUnits="userSpaceOnUse"
     x="988"
     y="153"
     width="153"
     height="436"
     fill="#000000">
    <rect
       fill="#ffffff"
       x="988"
       y="153"
       width="153"
       height="436"
       id="rect20" />
    <path
       d="m 1139,586.888 c -39.52,0 -77.42,-22.751 -105.36,-63.248 C 1005.7,483.142 990,428.216 990,370.944 990,313.672 1005.7,258.746 1033.64,218.249 1061.58,177.751 1099.48,155 1139,155 v 1.478 c -39.25,0 -76.89,22.595 -104.64,62.816 -27.75,40.22 -43.34,94.77 -43.34,151.65 0,56.88 15.59,111.43 43.34,151.651 27.75,40.22 65.39,62.815 104.64,62.815 z"
       id="path21" />
  </mask>
  <mask
     id="path-27-outside-3_699_63594"
     maskUnits="userSpaceOnUse"
     x="662"
     y="152.891"
     width="164"
     height="436"
     fill="#000000">
    <rect
       fill="#ffffff"
       x="662"
       y="152.89101"
       width="164"
       height="436"
       id="rect24" />
    <path
       d="m 664,155.001 c 42.435,0 83.131,22.751 113.137,63.248 30.006,40.498 46.863,95.424 46.863,152.697 0,57.272 -16.857,112.198 -46.863,152.696 -30.006,40.497 -70.702,63.249 -113.137,63.249 v -1.478 c 42.144,0 82.562,-22.596 112.363,-62.816 29.8,-40.221 46.542,-94.771 46.542,-151.651 0,-56.881 -16.742,-111.431 -46.542,-151.651 C 746.562,179.074 706.144,156.479 664,156.479 Z"
       id="path25" />
  </mask>
  <mask
     id="path-29-outside-4_699_63594"
     maskUnits="userSpaceOnUse"
     x="1608"
     y="150.891"
     width="164"
     height="436"
     fill="#000000">
    <rect
       fill="#ffffff"
       x="1608"
       y="150.89101"
       width="164"
       height="436"
       id="rect28" />
    <path
       d="m 1610,153.001 c 42.43,0 83.13,22.751 113.14,63.248 30,40.498 46.86,95.424 46.86,152.697 0,57.272 -16.86,112.198 -46.86,152.696 -30.01,40.497 -70.71,63.249 -113.14,63.249 v -1.478 c 42.14,0 82.56,-22.596 112.36,-62.816 29.8,-40.221 46.54,-94.771 46.54,-151.651 0,-56.881 -16.74,-111.431 -46.54,-151.651 -29.8,-40.221 -70.22,-62.816 -112.36,-62.816 z"
       id="path29" />
  </mask>
  <g
     id="g42"
     inkscape:label="lines"
     style="fill:none;fill-opacity:0.6;stroke:#666666;stroke-opacity:1"
     transform="translate(0,-11.645962)">
    <path
       d="m 994.5,724 c 42.64,0 84.86,-5.01 124.28,-14.75 39.41,-9.739 75.26,-24.024 105.49,-42.061"
       stroke="#F4F4F4"
       stroke-opacity="0.3"
       stroke-width="4"
       id="path3"
       style="fill:none;fill-opacity:0.6;stroke:#666666;stroke-opacity:1" />
    <path
       d="m 572.309,655.771 c 36.664,21.761 75.534,39.007 114.399,50.749 38.862,11.74 76.982,17.755 112.187,17.676"
       stroke="#F4F4F4"
       stroke-opacity="0.3"
       stroke-width="4"
       id="path5"
       style="fill:none;fill-opacity:0.6;stroke:#666666;stroke-opacity:1" />
    <path
       d="m 1139,586.888 c -39.52,0 -77.42,-22.751 -105.36,-63.248 C 1005.7,483.142 990,428.216 990,370.944 990,313.672 1005.7,258.746 1033.64,218.249 1061.58,177.751 1099.48,155 1139,155 v 1.478 c -39.25,0 -76.89,22.595 -104.64,62.816 -27.75,40.22 -43.34,94.77 -43.34,151.65 0,56.88 15.59,111.43 43.34,151.651 27.75,40.22 65.39,62.815 104.64,62.815 z"
       fill="#F4F4F4"
       fill-opacity="0.3"
       id="path22"
       style="fill:none;fill-opacity:0.6;stroke:#666666;stroke-opacity:1" />
    <path
       d="M 151,584.888 C 111.483,584.888 73.584,562.137 45.6411,521.64 17.6982,481.142 2,426.216 2,368.944 2,311.672 17.6982,256.746 45.6411,216.249 73.584,175.751 111.483,153 151,153 v 1.478 c -39.247,0 -76.8861,22.595 -104.6378,62.816 -27.7517,40.22 -43.34239,94.77 -43.34239,151.65 -1e-5,56.88 15.59069,111.43 43.34239,151.651 C 74.1139,560.815 111.753,583.41 151,583.41 Z"
       fill="#F4F4F4"
       fill-opacity="0.3"
       id="path18"
       style="fill:none;fill-opacity:0.6;stroke:#666666;stroke-opacity:1" />
    <path
       d="m 664,155.001 c 42.435,0 83.131,22.751 113.137,63.248 30.006,40.498 46.863,95.424 46.863,152.697 0,57.272 -16.857,112.198 -46.863,152.696 -30.006,40.497 -70.702,63.249 -113.137,63.249 v -1.478 c 42.144,0 82.562,-22.596 112.363,-62.816 29.8,-40.221 46.542,-94.771 46.542,-151.651 0,-56.881 -16.742,-111.431 -46.542,-151.651 C 746.562,179.074 706.144,156.479 664,156.479 Z"
       fill="#F4F4F4"
       fill-opacity="0.3"
       id="path26"
       style="fill:none;fill-opacity:0.6;stroke:#666666;stroke-opacity:1" />
    <path
       d="m 1604,153.001 c 42.43,0 83.13,22.751 113.14,63.248 30,40.498 46.86,95.424 46.86,152.697 0,27.42577 -3.8663,54.31358 -11.1903,79.33665 -7.9704,27.23149 -20.0358,52.25458 -35.6697,73.35935 -30.01,40.497 -70.71,63.249 -113.14,63.249 v -1.478 c 42.14,0 82.56,-22.596 112.36,-62.816 29.8,-40.221 46.54,-94.771 46.54,-151.651 0,-56.881 -16.74,-111.431 -46.54,-151.651 -29.8,-40.221 -70.22,-62.816 -112.36,-62.816 z"
       fill="#F4F4F4"
       fill-opacity="0.3"
       id="path30"
       style="fill:none;fill-opacity:0.6;stroke:#666666;stroke-opacity:1"
       sodipodi:nodetypes="ccssccccsccc" />
    <path
       d="M 151,584.888 C 111.483,584.888 73.584,562.137 45.6411,521.64 17.6982,481.142 2,426.216 2,368.944 2,311.672 17.6982,256.746 45.6411,216.249 73.584,175.751 111.483,153 151,153 v 1.478 c -39.247,0 -76.8861,22.595 -104.6378,62.816 -27.7517,40.22 -43.34239,94.77 -43.34239,151.65 -1e-5,56.88 15.59069,111.43 43.34239,151.651 C 74.1139,560.815 111.753,583.41 151,583.41 Z"
       stroke="#F4F4F4"
       stroke-opacity="0.3"
       stroke-width="4"
       mask="url(#path-23-outside-1_699_63594)"
       id="path19"
       style="fill:none;fill-opacity:0.6;stroke:#666666;stroke-opacity:1" />
    <path
       d="m 1139,586.888 c -39.52,0 -77.42,-22.751 -105.36,-63.248 C 1005.7,483.142 990,428.216 990,370.944 990,313.672 1005.7,258.746 1033.64,218.249 1061.58,177.751 1099.48,155 1139,155 v 1.478 c -39.25,0 -76.89,22.595 -104.64,62.816 -27.75,40.22 -43.34,94.77 -43.34,151.65 0,56.88 15.59,111.43 43.34,151.651 27.75,40.22 65.39,62.815 104.64,62.815 z"
       stroke="#F4F4F4"
       stroke-opacity="0.3"
       stroke-width="4"
       mask="url(#path-25-outside-2_699_63594)"
       id="path23"
       style="fill:none;fill-opacity:0.6;stroke:#666666;stroke-opacity:1" />
    <path
       d="m 664,155.001 c 42.435,0 83.131,22.751 113.137,63.248 30.006,40.498 46.863,95.424 46.863,152.697 0,57.272 -16.857,112.198 -46.863,152.696 -30.006,40.497 -70.702,63.249 -113.137,63.249 v -1.478 c 42.144,0 82.562,-22.596 112.363,-62.816 29.8,-40.221 46.542,-94.771 46.542,-151.651 0,-56.881 -16.742,-111.431 -46.542,-151.651 -8.4147,-11.35692 -17.67588,-21.30854 -27.58338,-29.74299 -5.32634,-4.53442 -10.83949,-8.63035 -16.50833,-12.27041 C 711.14063,163.71327 687.84663,156.479 664,156.479 Z"
       stroke="#F4F4F4"
       stroke-opacity="0.3"
       stroke-width="4"
       mask="url(#path-27-outside-3_699_63594)"
       id="path27"
       style="fill:none;fill-opacity:0.6;stroke:#666666;stroke-opacity:1"
       sodipodi:nodetypes="ccsccccscsscc" />
    <path
       d="m 1610,153.001 c 42.43,0 83.13,22.751 113.14,63.248 30,40.498 46.86,95.424 46.86,152.697 0,57.272 -16.86,112.198 -46.86,152.696 -30.01,40.497 -70.71,63.249 -113.14,63.249 v -1.478 c 42.14,0 82.56,-22.596 112.36,-62.816 29.8,-40.221 46.54,-94.771 46.54,-151.651 0,-56.881 -16.74,-111.431 -46.54,-151.651 -29.8,-40.221 -70.22,-62.816 -112.36,-62.816 z"
       stroke="#F4F4F4"
       stroke-opacity="0.3"
       stroke-width="4"
       mask="url(#path-29-outside-4_699_63594)"
       id="path31"
       style="fill:none;fill-opacity:0.6;stroke:#666666;stroke-opacity:1"
       transform="translate(-6)" />
    <path
       d="m 751.5,32.2368 c -42.636,0 -84.864,5.0098 -124.278,14.7497 -39.411,9.7393 -75.262,24.024 -105.496,42.0612"
       stroke="#F4F4F4"
       stroke-opacity="0.3"
       stroke-width="4"
       id="path33"
       style="fill:none;fill-opacity:0.6;stroke:#666666;stroke-opacity:1" />
    <path
       d="m 994.5,29.9999 c 42.6,0 84.8,3.9401 124.18,11.6003 39.38,7.6596 75.2,18.8942 105.42,33.0831"
       stroke="#F4F4F4"
       stroke-opacity="0.3"
       stroke-width="4"
       id="path35"
       style="fill:none;fill-opacity:0.6;stroke:#666666;stroke-opacity:1" />
  </g>
  <g
     id="g41"
     inkscape:label="arrows"
     style="fill:#666666;fill-opacity:1;stroke:none;stroke-opacity:0.5"
     transform="translate(-2,-11.645962)">
    <path
       d="m 988.386,722.247 c -0.798,0.725 -0.83,1.99 -0.07,2.828 l 12.374,13.642 c 0.76,0.837 2.03,0.928 2.83,0.204 0.79,-0.725 0.83,-1.991 0.07,-2.828 l -11.007,-12.126 11.567,-10.494 c 0.8,-0.725 0.83,-1.991 0.07,-2.828 -0.76,-0.837 -2.02,-0.928 -2.82,-0.204 z m 7.972,-0.01 -6.547,-0.474 -0.099,3.999 6.546,0.474 z"
       fill="#F4F4F4"
       fill-opacity="0.3"
       id="path4"
       style="fill:#666666;fill-opacity:1;stroke:none;stroke-opacity:0.5" />
    <path
       d="m 567.946,651.143 c -1.056,0.216 -1.729,1.288 -1.503,2.396 l 3.681,18.049 c 0.226,1.108 1.266,1.831 2.322,1.616 1.057,-0.216 1.73,-1.288 1.504,-2.396 l -3.273,-16.044 15.302,-3.121 c 1.056,-0.216 1.729,-1.288 1.503,-2.396 -0.226,-1.107 -1.265,-1.831 -2.321,-1.615 z m 6.86,4.06 -5.387,-3.748 -2.127,3.388 5.388,3.748 z"
       fill="#F4F4F4"
       fill-opacity="0.3"
       id="path6"
       style="fill:#666666;fill-opacity:1;stroke:none;stroke-opacity:0.5" />
    <path
       d="m 160.928,154.18 c 0.594,-0.868 0.302,-2.1 -0.651,-2.752 l -15.535,-10.624 c -0.953,-0.652 -2.208,-0.477 -2.801,0.391 -0.594,0.868 -0.303,2.101 0.651,2.753 l 13.809,9.443 -8.601,12.576 c -0.594,0.869 -0.302,2.101 0.651,2.753 0.953,0.652 2.207,0.477 2.801,-0.392 z m -16.303,2.868 15.037,-2.102 -0.921,-3.892 -15.036,2.101 z"
       fill="#F4F4F4"
       fill-opacity="0.3"
       id="path20"
       style="fill:#666666;fill-opacity:1;stroke:none;stroke-opacity:0.5" />
    <path
       d="m 1148.93,156.18 c 0.59,-0.868 0.3,-2.1 -0.65,-2.752 l -15.54,-10.624 c -0.95,-0.652 -2.21,-0.477 -2.8,0.391 -0.59,0.868 -0.3,2.101 0.65,2.753 l 13.81,9.443 -8.6,12.576 c -0.59,0.869 -0.3,2.101 0.65,2.753 0.95,0.652 2.21,0.477 2.8,-0.392 z m -16.3,2.868 15.03,-2.102 -0.92,-3.892 -15.04,2.101 z"
       fill="#F4F4F4"
       fill-opacity="0.3"
       id="path24"
       style="fill:#666666;fill-opacity:1;stroke:none;stroke-opacity:0.5" />
    <path
       d="m 653.442,585.703 c -0.582,0.857 -0.27,2.085 0.696,2.741 l 15.755,10.693 c 0.967,0.657 2.222,0.493 2.805,-0.365 0.582,-0.857 0.27,-2.085 -0.697,-2.741 l -14.004,-9.505 8.434,-12.426 c 0.583,-0.858 0.271,-2.085 -0.696,-2.742 -0.967,-0.656 -2.222,-0.492 -2.805,0.365 z m 17.405,-2.852 -16.147,2.101 0.985,3.877 16.147,-2.101 z"
       fill="#F4F4F4"
       fill-opacity="0.3"
       id="path28"
       style="fill:#666666;fill-opacity:1;stroke:none;stroke-opacity:0.5" />
    <path
       d="m 1599.44,583.703 c -0.58,0.857 -0.27,2.085 0.7,2.741 l 15.75,10.693 c 0.97,0.657 2.23,0.493 2.81,-0.365 0.58,-0.857 0.27,-2.085 -0.7,-2.741 l -14,-9.505 8.43,-12.426 c 0.58,-0.858 0.27,-2.085 -0.69,-2.742 -0.97,-0.656 -2.23,-0.492 -2.81,0.365 z m 17.41,-2.852 -16.15,2.101 0.98,3.877 16.15,-2.101 z"
       fill="#F4F4F4"
       fill-opacity="0.3"
       id="path32"
       style="fill:#666666;fill-opacity:1;stroke:none;stroke-opacity:0.5" />
    <path
       d="m 757.614,33.9893 c 0.798,-0.7245 0.83,-1.9904 0.07,-2.8276 L 745.305,17.5196 c -0.759,-0.8372 -2.022,-0.9285 -2.821,-0.2041 -0.798,0.7245 -0.83,1.9904 -0.07,2.8276 l 11.003,12.1263 -11.565,10.4941 c -0.798,0.7245 -0.83,1.9904 -0.07,2.8276 0.759,0.8371 2.022,0.9285 2.821,0.204 z m -7.972,0.0101 6.547,0.4734 0.099,-3.9987 -6.546,-0.4735 z"
       fill="#F4F4F4"
       fill-opacity="0.3"
       id="path34"
       style="fill:#666666;fill-opacity:1;stroke:none;stroke-opacity:0.5" />
    <path
       d="m 1230.21,78.9063 c 1.03,-0.3425 1.55,-1.4736 1.16,-2.5264 l -6.36,-17.1563 c -0.39,-1.0528 -1.54,-1.6287 -2.57,-1.2862 -1.03,0.3425 -1.55,1.4735 -1.16,2.5263 l 5.65,15.2501 -14.93,4.9608 c -1.03,0.3425 -1.55,1.4735 -1.16,2.5263 0.39,1.0528 1.54,1.6287 2.57,1.2862 z m -8.53,-3.6199 7,3.5 1.64,-3.5728 -7,-3.5 z"
       fill="#F4F4F4"
       fill-opacity="0.3"
       id="path36"
       style="fill:#666666;fill-opacity:1;stroke:none;stroke-opacity:0.5" />
  </g>
  <defs
     id="defs41">
    <radialGradient
       id="paint0_radial_699_63594"
       cx="0"
       cy="0"
       r="1"
       gradientUnits="userSpaceOnUse"
       gradientTransform="matrix(0,165,-551,0,277.5,632)">
      <stop
         stop-color="white"
         id="stop36" />
      <stop
         offset="1"
         stop-color="white"
         stop-opacity="0"
         id="stop37" />
    </radialGradient>
    <radialGradient
       id="paint1_radial_699_63594"
       cx="0"
       cy="0"
       r="1"
       gradientUnits="userSpaceOnUse"
       gradientTransform="matrix(0,280,-650,0,401,226)">
      <stop
         stop-color="white"
         id="stop38"
         offset="0"
         style="stop-color:#00d6d9;stop-opacity:0.2;" />
      <stop
         offset="1"
         stop-color="white"
         stop-opacity="0"
         id="stop39"
         style="stop-color:#00c085;stop-opacity:0.10196079;" />
    </radialGradient>
    <radialGradient
       id="paint2_radial_699_63594"
       cx="0"
       cy="0"
       r="1"
       gradientUnits="userSpaceOnUse"
       gradientTransform="matrix(0,280,-650,0,1376,226)">
      <stop
         stop-color="white"
         id="stop40"
         offset="0"
         style="stop-color:#00d6d9;stop-opacity:0.40000001;" />
      <stop
         offset="1"
         stop-color="white"
         stop-opacity="0"
         id="stop41"
         style="stop-color:#00c085;stop-opacity:0.10196079;" />
    </radialGradient>
  </defs>
  <text
     xml:space="preserve"
     style="font-size:40px;line-height:1.25;font-family:Inter;-inkscape-font-specification:Inter"
     x="791.76166"
     y="29.101562"
     id="text43"><tspan
       sodipodi:role="line"
       id="tspan43"
       x="791.76166"
       y="29.101562"
       style="font-style:normal;font-variant:normal;font-weight:bold;font-stretch:normal;font-size:40px;font-family:Inter;-inkscape-font-specification:'Inter Bold';fill:#1a1a1a">Demand</tspan></text>
  <text
     xml:space="preserve"
     style="font-size:40px;line-height:1.25;font-family:Inter;-inkscape-font-specification:Inter"
     x="247.901"
     y="152.32806"
     id="text43-0"><tspan
       sodipodi:role="line"
       id="tspan43-7"
       x="247.901"
       y="152.32806"
       style="font-style:normal;font-variant:normal;font-weight:bold;font-stretch:normal;font-size:40px;font-family:Inter;-inkscape-font-specification:'Inter Bold';fill:#1a1a1a">Lower Unit Costs</tspan></text>
  <text
     xml:space="preserve"
     style="font-size:40px;line-height:1.25;font-family:Inter;-inkscape-font-specification:Inter"
     x="343.05994"
     y="322.02475"
     id="text43-0-6"><tspan
       sodipodi:role="line"
       id="tspan43-7-18"
       x="343.05994"
       y="322.02475"
       style="font-style:normal;font-variant:normal;font-weight:bold;font-stretch:normal;font-size:40px;font-family:Inter;-inkscape-font-specification:'Inter Bold';fill:#1a1a1a">Total Paid IBM</tspan></text>
  <text
     xml:space="preserve"
     style="font-size:40px;line-height:1.25;font-family:Inter;-inkscape-font-specification:Inter"
     x="160.82468"
     y="366.34674"
     id="text43-0-6-0"><tspan
       sodipodi:role="line"
       id="tspan43-7-18-0"
       x="160.82468"
       y="366.34674"
       style="font-style:normal;font-variant:normal;font-weight:bold;font-stretch:normal;font-size:40px;font-family:Inter;-inkscape-font-specification:'Inter Bold';fill:#1a1a1a">IBME =</tspan></text>
  <text
     xml:space="preserve"
     style="font-size:40px;line-height:1.25;font-family:Inter;-inkscape-font-specification:Inter"
     x="341.74368"
     y="415.62378"
     id="text43-0-6-8"><tspan
       sodipodi:role="line"
       id="tspan43-7-18-5"
       x="341.74368"
       y="415.62378"
       style="font-style:normal;font-variant:normal;font-weight:bold;font-stretch:normal;font-size:40px;font-family:Inter;-inkscape-font-specification:'Inter Bold';fill:#1a1a1a">Total Run IBM</tspan></text>
  <text
     xml:space="preserve"
     style="font-size:40px;line-height:1.25;font-family:Inter;-inkscape-font-specification:Inter"
     x="192.43996"
     y="587.77698"
     id="text43-0-2"><tspan
       sodipodi:role="line"
       id="tspan43-7-1"
       x="192.43996"
       y="587.77698"
       style="font-style:normal;font-variant:normal;font-weight:bold;font-stretch:normal;font-size:40px;font-family:Inter;-inkscape-font-specification:'Inter Bold';fill:#1a1a1a">Higher GPU Utilization</tspan></text>
  <text
     xml:space="preserve"
     style="font-size:40px;line-height:1.25;font-family:Inter;-inkscape-font-specification:Inter"
     x="826.61145"
     y="723.27374"
     id="text43-9"><tspan
       sodipodi:role="line"
       id="tspan43-5"
       x="826.61145"
       y="723.27374"
       style="font-style:normal;font-variant:normal;font-weight:bold;font-stretch:normal;font-size:40px;font-family:Inter;-inkscape-font-specification:'Inter Bold';fill:#1a1a1a">Supply</tspan></text>
  <text
     xml:space="preserve"
     style="font-size:40px;line-height:1.25;font-family:Inter;-inkscape-font-specification:Inter"
     x="1248.4103"
     y="152.72832"
     id="text43-0-0"><tspan
       sodipodi:role="line"
       id="tspan43-7-4"
       x="1248.4103"
       y="152.72832"
       style="font-style:normal;font-variant:normal;font-weight:bold;font-stretch:normal;font-size:40px;font-family:Inter;-inkscape-font-specification:'Inter Bold';fill:#1a1a1a">More Liquidity</tspan></text>
  <text
     xml:space="preserve"
     style="font-size:40px;line-height:1.25;font-family:Inter;-inkscape-font-specification:Inter"
     x="1204.7793"
     y="367.08438"
     id="text43-0-0-1"><tspan
       sodipodi:role="line"
       id="tspan43-7-4-0"
       x="1204.7793"
       y="367.08438"
       style="font-style:normal;font-variant:normal;font-weight:bold;font-stretch:normal;font-size:40px;font-family:Inter;-inkscape-font-specification:'Inter Bold';fill:#1a1a1a">BMW Work &amp; Mint</tspan></text>
  <text
     xml:space="preserve"
     style="font-size:40px;line-height:1.25;font-family:Inter;-inkscape-font-specification:Inter"
     x="1213.1014"
     y="587.62177"
     id="text43-0-0-1-8"><tspan
       sodipodi:role="line"
       id="tspan43-7-4-0-8"
       x="1213.1014"
       y="587.62177"
       style="font-style:normal;font-variant:normal;font-weight:bold;font-stretch:normal;font-size:40px;font-family:Inter;-inkscape-font-specification:'Inter Bold';fill:#1a1a1a">Higher $IFX Value</tspan></text>
</svg>
