<?xml version="1.0" encoding="UTF-8" standalone="no"?>
<svg
   xmlns:dc="http://purl.org/dc/elements/1.1/"
   xmlns:cc="http://creativecommons.org/ns#"
   xmlns:rdf="http://www.w3.org/1999/02/22-rdf-syntax-ns#"
   xmlns:svg="http://www.w3.org/2000/svg"
   xmlns="http://www.w3.org/2000/svg"
   xmlns:sodipodi="http://sodipodi.sourceforge.net/DTD/sodipodi-0.dtd"
   xmlns:inkscape="http://www.inkscape.org/namespaces/inkscape"
   width="223"
   height="45"
   viewBox="0 0 223 45"
   fill="none"
   version="1.1"
   id="svg33"
   sodipodi:docname="logo-new.svg"
   inkscape:export-filename="F:\OneDrive\Projects\Inferix\WIP\Logo\logo_inferix\logo-new-big.png"
   inkscape:export-xdpi="1064.5333"
   inkscape:export-ydpi="1064.5333"
   inkscape:version="1.0.2-2 (e86c870879, 2021-01-15)">
  <metadata
     id="metadata37">
    <rdf:RDF>
      <cc:Work
         rdf:about="">
        <dc:format>image/svg+xml</dc:format>
        <dc:type
           rdf:resource="http://purl.org/dc/dcmitype/StillImage" />
      </cc:Work>
    </rdf:RDF>
  </metadata>
  <sodipodi:namedview
     pagecolor="#ffffff"
     bordercolor="#666666"
     borderopacity="1"
     objecttolerance="10"
     gridtolerance="10"
     guidetolerance="10"
     inkscape:pageopacity="0"
     inkscape:pageshadow="2"
     inkscape:window-width="1920"
     inkscape:window-height="1009"
     id="namedview35"
     showgrid="false"
     inkscape:zoom="4.6726457"
     inkscape:cx="111.5"
     inkscape:cy="22.5"
     inkscape:window-x="-8"
     inkscape:window-y="-8"
     inkscape:window-maximized="1"
     inkscape:current-layer="svg33" />
  <g
     clip-path="url(#clip0_100_80453)"
     id="g16">
    <path
       d="M0.647461 45V0H8.25557V45H0.647461Z"
       fill="url(#paint0_linear_100_80453)"
       id="path2" />
    <path
       d="M15.886 45V7.5H23.4941V15H31.1022V22.5H23.4941V45H15.886ZM38.7103 45V30H31.1022V22.5H38.7103V7.5H46.3184V45H38.7103Z"
       fill="url(#paint1_linear_100_80453)"
       id="path4" />
    <path
       d="M55.2468 45V7.5H85.6792V15H62.8549V22.5H85.6792V30H62.8549V45H55.2468Z"
       fill="white"
       id="path6" />
    <path
       d="M116.112 22.5V15H100.895V22.5H116.112ZM93.2874 45V7.5H123.72V30H100.895V37.5H123.72V45H93.2874Z"
       fill="white"
       id="path8" />
    <path
       d="M131.328 45V7.5H161.76V15H138.936V45H131.328Z"
       fill="white"
       id="path10" />
    <path
       d="M169.368 45V22.5H176.977V45H169.368ZM169.368 15V7.5H176.977V15H169.368Z"
       fill="white"
       id="path12" />
    <path
       d="M184.607 45V37.5H192.215V45H184.607ZM215.039 45V37.5H222.647V45H215.039ZM192.215 37.5V30H199.823V37.5H192.215ZM207.431 37.5V30H215.039V37.5H207.431ZM199.823 30V22.5H207.431V30H199.823ZM192.215 22.5V15H199.823V22.5H192.215ZM207.431 22.5V15H215.039V22.5H207.431ZM184.607 15V7.5H192.215V15H184.607ZM215.039 15V7.5H222.647V15H215.039Z"
       fill="white"
       id="path14" />
  </g>
  <defs
     id="defs31">
    <linearGradient
       id="paint0_linear_100_80453"
       x1="0.647461"
       y1="45"
       x2="15.4408"
       y2="42.4989"
       gradientUnits="userSpaceOnUse">
      <stop
         stop-color="#00D6D9"
         id="stop18" />
      <stop
         offset="1"
         stop-color="#00C085"
         id="stop20" />
    </linearGradient>
    <linearGradient
       id="paint1_linear_100_80453"
       x1="15.886"
       y1="45"
       x2="52.5829"
       y2="15.2193"
       gradientUnits="userSpaceOnUse">
      <stop
         stop-color="#00D6D9"
         id="stop23" />
      <stop
         offset="1"
         stop-color="#00C085"
         id="stop25" />
    </linearGradient>
    <clipPath
       id="clip0_100_80453">
      <rect
         width="222"
         height="45"
         fill="white"
         transform="translate(0.647461)"
         id="rect28" />
    </clipPath>
  </defs>
</svg>
